<?xml version="1.0" encoding="UTF-8"?>
<!DOCTYPE svg PUBLIC "-//W3C//DTD SVG 1.1//EN" "http://www.w3.org/Graphics/SVG/1.1/DTD/svg11.dtd">
<svg xmlns="http://www.w3.org/2000/svg" version="1.1" width="512px" height="512px" style="shape-rendering:geometricPrecision; text-rendering:geometricPrecision; image-rendering:optimizeQuality; fill-rule:evenodd; clip-rule:evenodd" xmlns:xlink="http://www.w3.org/1999/xlink">
<g><path style="opacity:0.994" fill="#75f032" d="M 90.5,-0.5 C 200.5,-0.5 310.5,-0.5 420.5,-0.5C 434.088,1.58581 446.755,6.25247 458.5,13.5C 323.167,13.5 187.833,13.5 52.5,13.5C 64.2452,6.25247 76.9119,1.58581 90.5,-0.5 Z"/></g>
<g><path style="opacity:0.995" fill="#69ee35" d="M 52.5,13.5 C 187.833,13.5 323.167,13.5 458.5,13.5C 464.388,16.3932 469.722,20.0599 474.5,24.5C 328.5,24.5 182.5,24.5 36.5,24.5C 41.2783,20.0599 46.6117,16.3932 52.5,13.5 Z"/></g>
<g><path style="opacity:0.997" fill="#60ec38" d="M 36.5,24.5 C 182.5,24.5 328.5,24.5 474.5,24.5C 477.833,27.1667 480.833,30.1667 483.5,33.5C 331.5,33.5 179.5,33.5 27.5,33.5C 30.1667,30.1667 33.1667,27.1667 36.5,24.5 Z"/></g>
<g><path style="opacity:0.996" fill="#59ea3a" d="M 27.5,33.5 C 179.5,33.5 331.5,33.5 483.5,33.5C 487.126,36.0948 489.792,39.4281 491.5,43.5C 334.167,43.5 176.833,43.5 19.5,43.5C 21.2076,39.4281 23.8743,36.0948 27.5,33.5 Z"/></g>
<g><path style="opacity:0.997" fill="#53e83b" d="M 19.5,43.5 C 176.833,43.5 334.167,43.5 491.5,43.5C 496.156,48.7962 499.823,54.7962 502.5,61.5C 337.833,61.5 173.167,61.5 8.5,61.5C 11.1773,54.7962 14.8439,48.7962 19.5,43.5 Z"/></g>
<g><path style="opacity:0.997" fill="#4ae53c" d="M 8.5,61.5 C 173.167,61.5 337.833,61.5 502.5,61.5C 506.399,69.7568 509.066,78.4235 510.5,87.5C 408.459,87.8288 306.459,87.4955 204.5,86.5C 181.26,66.0246 156.594,64.1913 130.5,81C 128.297,83.3722 125.963,85.5389 123.5,87.5C 82.5,87.5 41.5,87.5 0.5,87.5C 1.93419,78.4235 4.60086,69.7568 8.5,61.5 Z"/></g>
<g><path style="opacity:1" fill="#fdfefd" d="M 204.5,86.5 C 208.578,90.9839 211.911,95.9839 214.5,101.5C 216.095,104.285 217.095,107.285 217.5,110.5C 218.06,112.801 218.56,115.134 219,117.5C 219.5,129.162 219.667,140.829 219.5,152.5C 254.728,144.914 288.728,148.581 321.5,163.5C 336.781,171.647 350.447,181.98 362.5,194.5C 371.975,204.781 379.975,216.114 386.5,228.5C 392.822,240.467 397.156,253.133 399.5,266.5C 401.244,273.039 402.244,279.706 402.5,286.5C 402.839,303.786 400.839,320.786 396.5,337.5C 390.892,354.382 382.892,370.048 372.5,384.5C 333.326,430.731 283.659,448.564 223.5,438C 193.099,430.48 167.433,415.314 146.5,392.5C 132.363,376.35 122.03,358.017 115.5,337.5C 110.559,317.147 108.559,296.481 109.5,275.5C 109.5,255.833 109.5,236.167 109.5,216.5C 109.5,204.5 109.5,192.5 109.5,180.5C 109.5,165.167 109.5,149.833 109.5,134.5C 109.5,128.167 109.5,121.833 109.5,115.5C 110.913,110.831 112.579,106.164 114.5,101.5C 117.001,96.4936 120.001,91.8269 123.5,87.5C 125.963,85.5389 128.297,83.3722 130.5,81C 156.594,64.1913 181.26,66.0246 204.5,86.5 Z"/></g>
<g><path style="opacity:0.995" fill="#41e13d" d="M 0.5,87.5 C 41.5,87.5 82.5,87.5 123.5,87.5C 120.001,91.8269 117.001,96.4936 114.5,101.5C 76.1667,101.5 37.8333,101.5 -0.5,101.5C -0.5,97.8333 -0.5,94.1667 -0.5,90.5C 0.403972,89.791 0.737305,88.791 0.5,87.5 Z"/></g>
<g><path style="opacity:0.998" fill="#41e13d" d="M 204.5,86.5 C 306.459,87.4955 408.459,87.8288 510.5,87.5C 510.263,88.791 510.596,89.791 511.5,90.5C 511.5,94.1667 511.5,97.8333 511.5,101.5C 412.5,101.5 313.5,101.5 214.5,101.5C 211.911,95.9839 208.578,90.9839 204.5,86.5 Z"/></g>
<g><path style="opacity:1" fill="#3adb3c" d="M 194.5,111.5 C 196.347,129.429 197.014,147.429 196.5,165.5C 189.833,165.5 183.167,165.5 176.5,165.5C 176.829,150.324 176.496,135.324 175.5,120.5C 168.087,111.244 160.753,111.244 153.5,120.5C 152.504,135.324 152.171,150.324 152.5,165.5C 145.833,165.5 139.167,165.5 132.5,165.5C 132.5,149.5 132.5,133.5 132.5,117.5C 135.908,104.257 144.242,95.7575 157.5,92C 174.678,89.5866 187.012,96.0866 194.5,111.5 Z"/></g>
<g><path style="opacity:1" fill="#3bdc3c" d="M -0.5,101.5 C 37.8333,101.5 76.1667,101.5 114.5,101.5C 112.579,106.164 110.913,110.831 109.5,115.5C 108.51,121.31 108.177,127.31 108.5,133.5C 72.1667,133.5 35.8333,133.5 -0.5,133.5C -0.5,122.833 -0.5,112.167 -0.5,101.5 Z"/></g>
<g><path style="opacity:1" fill="#3bdc3c" d="M 214.5,101.5 C 313.5,101.5 412.5,101.5 511.5,101.5C 511.5,112.167 511.5,122.833 511.5,133.5C 414.5,133.5 317.5,133.5 220.5,133.5C 220.666,127.491 220.499,121.491 220,115.5C 219.901,113.347 219.067,111.681 217.5,110.5C 217.095,107.285 216.095,104.285 214.5,101.5 Z"/></g>
<g><path style="opacity:1" fill="#34d73a" d="M 109.5,115.5 C 109.5,121.833 109.5,128.167 109.5,134.5C 108.506,144.653 108.172,154.986 108.5,165.5C 72.1667,165.5 35.8333,165.5 -0.5,165.5C -0.5,154.833 -0.5,144.167 -0.5,133.5C 35.8333,133.5 72.1667,133.5 108.5,133.5C 108.177,127.31 108.51,121.31 109.5,115.5 Z"/></g>
<g><path style="opacity:1" fill="#35d73a" d="M 217.5,110.5 C 219.067,111.681 219.901,113.347 220,115.5C 220.499,121.491 220.666,127.491 220.5,133.5C 317.5,133.5 414.5,133.5 511.5,133.5C 511.5,144.167 511.5,154.833 511.5,165.5C 449.832,165.667 388.166,165.5 326.5,165C 324.975,163.991 323.308,163.491 321.5,163.5C 288.728,148.581 254.728,144.914 219.5,152.5C 219.667,140.829 219.5,129.162 219,117.5C 218.56,115.134 218.06,112.801 217.5,110.5 Z"/></g>
<g><path style="opacity:1" fill="#2fd038" d="M 360.5,227.5 C 351.918,228.47 343.251,228.803 334.5,228.5C 302.388,195.221 264.054,185.221 219.5,198.5C 219.5,190.833 219.5,183.167 219.5,175.5C 267.234,163.558 309.068,174.225 345,207.5C 350.417,214.016 355.584,220.683 360.5,227.5 Z"/></g>
<g><path style="opacity:1" fill="#2dd137" d="M 109.5,134.5 C 109.5,149.833 109.5,165.167 109.5,180.5C 108.509,187.313 108.175,194.313 108.5,201.5C 72.1667,201.5 35.8333,201.5 -0.5,201.5C -0.5,189.5 -0.5,177.5 -0.5,165.5C 35.8333,165.5 72.1667,165.5 108.5,165.5C 108.172,154.986 108.506,144.653 109.5,134.5 Z"/></g>
<g><path style="opacity:1" fill="#2ed137" d="M 194.5,111.5 C 195.6,113.277 196.434,115.277 197,117.5C 197.5,138.497 197.667,159.497 197.5,180.5C 196.509,187.313 196.175,194.313 196.5,201.5C 189.833,201.5 183.167,201.5 176.5,201.5C 176.825,194.313 176.491,187.313 175.5,180.5C 175.5,160.5 175.5,140.5 175.5,120.5C 176.496,135.324 176.829,150.324 176.5,165.5C 183.167,165.5 189.833,165.5 196.5,165.5C 197.014,147.429 196.347,129.429 194.5,111.5 Z"/></g>
<g><path style="opacity:1" fill="#2ed238" d="M 321.5,163.5 C 323.308,163.491 324.975,163.991 326.5,165C 388.166,165.5 449.832,165.667 511.5,165.5C 511.5,175.5 511.5,185.5 511.5,195.5C 461.791,195.824 412.125,195.491 362.5,194.5C 350.447,181.98 336.781,171.647 321.5,163.5 Z"/></g>
<g><path style="opacity:1" fill="#28cc35" d="M 362.5,194.5 C 412.125,195.491 461.791,195.824 511.5,195.5C 511.5,206.5 511.5,217.5 511.5,228.5C 469.833,228.5 428.167,228.5 386.5,228.5C 379.975,216.114 371.975,204.781 362.5,194.5 Z"/></g>
<g><path style="opacity:1" fill="#2ace35" d="M 132.5,117.5 C 132.5,133.5 132.5,149.5 132.5,165.5C 139.167,165.5 145.833,165.5 152.5,165.5C 152.171,150.324 152.504,135.324 153.5,120.5C 153.5,140.5 153.5,160.5 153.5,180.5C 152.504,196.325 152.17,212.325 152.5,228.5C 145.833,228.5 139.167,228.5 132.5,228.5C 132.827,219.318 132.493,210.318 131.5,201.5C 131.169,173.328 131.502,145.328 132.5,117.5 Z"/></g>
<g><path style="opacity:1" fill="#25c933" d="M 175.5,180.5 C 176.491,187.313 176.825,194.313 176.5,201.5C 183.167,201.5 189.833,201.5 196.5,201.5C 196.5,217.833 196.5,234.167 196.5,250.5C 189.833,250.5 183.167,250.5 176.5,250.5C 176.828,238.988 176.495,227.654 175.5,216.5C 175.5,204.5 175.5,192.5 175.5,180.5 Z"/></g>
<g><path style="opacity:1" fill="#27c934" d="M 311.5,237.5 C 311.414,238.496 311.748,239.329 312.5,240C 300.141,240.752 287.807,240.585 275.5,239.5C 255.592,233.139 237.259,236.139 220.5,248.5C 219.167,239.833 219.167,231.167 220.5,222.5C 247.566,210.737 273.899,212.237 299.5,227C 304.134,229.811 308.134,233.311 311.5,237.5 Z"/></g>
<g><path style="opacity:1" fill="#24c833" d="M 109.5,180.5 C 109.5,192.5 109.5,204.5 109.5,216.5C 108.505,227.654 108.172,238.988 108.5,250.5C 72.1667,250.5 35.8333,250.5 -0.5,250.5C -0.5,234.167 -0.5,217.833 -0.5,201.5C 35.8333,201.5 72.1667,201.5 108.5,201.5C 108.175,194.313 108.509,187.313 109.5,180.5 Z"/></g>
<g><path style="opacity:1" fill="#22c231" d="M 311.5,237.5 C 325.273,249.708 333.273,265.042 335.5,283.5C 335.632,292.191 335.299,300.858 334.5,309.5C 327.833,309.5 321.167,309.5 314.5,309.5C 315.694,302.351 315.694,295.351 314.5,288.5C 310.712,264.724 297.712,248.39 275.5,239.5C 287.807,240.585 300.141,240.752 312.5,240C 311.748,239.329 311.414,238.496 311.5,237.5 Z"/></g>
<g><path style="opacity:1" fill="#21c531" d="M 386.5,228.5 C 428.167,228.5 469.833,228.5 511.5,228.5C 511.5,244.167 511.5,259.833 511.5,275.5C 475.167,275.5 438.833,275.5 402.5,275.5C 402.851,271.841 401.851,268.841 399.5,266.5C 397.156,253.133 392.822,240.467 386.5,228.5 Z"/></g>
<g><path style="opacity:1" fill="#1fc32f" d="M 109.5,216.5 C 109.5,236.167 109.5,255.833 109.5,275.5C 109.167,275.5 108.833,275.5 108.5,275.5C 72.1667,275.5 35.8333,275.5 -0.5,275.5C -0.5,267.167 -0.5,258.833 -0.5,250.5C 35.8333,250.5 72.1667,250.5 108.5,250.5C 108.172,238.988 108.505,227.654 109.5,216.5 Z"/></g>
<g><path style="opacity:1" fill="#1fc22f" d="M 153.5,180.5 C 153.5,216.833 153.5,253.167 153.5,289.5C 152.188,296.038 152.188,302.705 153.5,309.5C 146.866,310.497 140.2,310.83 133.5,310.5C 132.939,291.008 132.272,271.675 131.5,252.5C 131.5,235.5 131.5,218.5 131.5,201.5C 132.493,210.318 132.827,219.318 132.5,228.5C 139.167,228.5 145.833,228.5 152.5,228.5C 152.17,212.325 152.504,196.325 153.5,180.5 Z"/></g>
<g><path style="opacity:1" fill="#21c231" d="M 360.5,227.5 C 371.049,243.609 377.382,261.276 379.5,280.5C 379.59,290.518 379.257,300.518 378.5,310.5C 371.8,310.83 365.134,310.497 358.5,309.5C 359.815,301.705 359.815,294.038 358.5,286.5C 355.974,264.796 347.974,245.462 334.5,228.5C 343.251,228.803 351.918,228.47 360.5,227.5 Z"/></g>
<g><path style="opacity:1" fill="#1bbe2d" d="M 399.5,266.5 C 401.851,268.841 402.851,271.841 402.5,275.5C 438.833,275.5 475.167,275.5 511.5,275.5C 511.5,287.167 511.5,298.833 511.5,310.5C 475.161,310.833 438.827,310.5 402.5,309.5C 403.815,301.705 403.815,294.038 402.5,286.5C 402.244,279.706 401.244,273.039 399.5,266.5 Z"/></g>
<g><path style="opacity:1" fill="#1dbe2e" d="M 248.5,258.5 C 270.67,256.861 285.17,266.527 292,287.5C 294.403,309.874 284.903,324.374 263.5,331C 247.282,333.306 234.449,327.806 225,314.5C 213.865,287.779 221.698,269.112 248.5,258.5 Z"/></g>
<g><path style="opacity:1" fill="#1bbe2d" d="M -0.5,275.5 C 35.8333,275.5 72.1667,275.5 108.5,275.5C 108.188,286.885 108.522,298.218 109.5,309.5C 72.8394,310.5 36.1727,310.833 -0.5,310.5C -0.5,298.833 -0.5,287.167 -0.5,275.5 Z"/></g>
<g><path style="opacity:1" fill="#1cc02e" d="M 197.5,180.5 C 197.5,204.5 197.5,228.5 197.5,252.5C 196.199,271.027 196.199,289.693 197.5,308.5C 190.91,308.811 184.41,308.478 178,307.5C 176.93,296.716 176.097,286.049 175.5,275.5C 175.5,255.833 175.5,236.167 175.5,216.5C 176.495,227.654 176.828,238.988 176.5,250.5C 183.167,250.5 189.833,250.5 196.5,250.5C 196.5,234.167 196.5,217.833 196.5,201.5C 196.175,194.313 196.509,187.313 197.5,180.5 Z"/></g>
<g><path style="opacity:1" fill="#1db92c" d="M 131.5,252.5 C 132.272,271.675 132.939,291.008 133.5,310.5C 140.2,310.83 146.866,310.497 153.5,309.5C 152.188,302.705 152.188,296.038 153.5,289.5C 153.271,306.128 156.271,322.128 162.5,337.5C 162.387,340.049 163.054,342.382 164.5,344.5C 157.5,345.833 150.5,345.833 143.5,344.5C 141.814,341.063 140.147,337.729 138.5,334.5C 135.526,326.161 133.36,317.495 132,308.5C 131.5,289.836 131.333,271.17 131.5,252.5 Z"/></g>
<g><path style="opacity:1" fill="#1eb92d" d="M 379.5,280.5 C 381.942,298.964 379.942,316.964 373.5,334.5C 371.853,337.729 370.186,341.063 368.5,344.5C 361.5,345.833 354.5,345.833 347.5,344.5C 348.946,342.382 349.613,340.049 349.5,337.5C 356.058,321.154 359.058,304.154 358.5,286.5C 359.815,294.038 359.815,301.705 358.5,309.5C 365.134,310.497 371.8,310.83 378.5,310.5C 379.257,300.518 379.59,290.518 379.5,280.5 Z"/></g>
<g><path style="opacity:1" fill="#17b829" d="M 108.5,275.5 C 108.833,275.5 109.167,275.5 109.5,275.5C 108.559,296.481 110.559,317.147 115.5,337.5C 115.575,340.206 115.908,342.873 116.5,345.5C 77.5,345.5 38.5,345.5 -0.5,345.5C -0.5,333.833 -0.5,322.167 -0.5,310.5C 36.1727,310.833 72.8394,310.5 109.5,309.5C 108.522,298.218 108.188,286.885 108.5,275.5 Z"/></g>
<g><path style="opacity:1" fill="#17b829" d="M 402.5,286.5 C 403.815,294.038 403.815,301.705 402.5,309.5C 438.827,310.5 475.161,310.833 511.5,310.5C 511.5,322.167 511.5,333.833 511.5,345.5C 472.833,345.5 434.167,345.5 395.5,345.5C 396.092,342.873 396.425,340.206 396.5,337.5C 400.839,320.786 402.839,303.786 402.5,286.5 Z"/></g>
<g><path style="opacity:1" fill="#19b52a" d="M 197.5,252.5 C 197.333,268.837 197.5,285.17 198,301.5C 203.904,332.904 222.737,350.238 254.5,353.5C 284.669,352.336 304.169,337.336 313,308.5C 314.052,301.872 314.552,295.206 314.5,288.5C 315.694,295.351 315.694,302.351 314.5,309.5C 321.167,309.5 327.833,309.5 334.5,309.5C 335.299,300.858 335.632,292.191 335.5,283.5C 338.914,323.829 322.247,352.662 285.5,370C 245.343,382.822 212.843,372.322 188,338.5C 177.024,318.915 172.857,297.915 175.5,275.5C 176.097,286.049 176.93,296.716 178,307.5C 184.41,308.478 190.91,308.811 197.5,308.5C 196.199,289.693 196.199,271.027 197.5,252.5 Z"/></g>
<g><path style="opacity:1" fill="#11b125" d="M 115.5,337.5 C 122.03,358.017 132.363,376.35 146.5,392.5C 146.5,393.5 146.5,394.5 146.5,395.5C 97.5,395.5 48.5,395.5 -0.5,395.5C -0.5,378.833 -0.5,362.167 -0.5,345.5C 38.5,345.5 77.5,345.5 116.5,345.5C 115.908,342.873 115.575,340.206 115.5,337.5 Z"/></g>
<g><path style="opacity:1" fill="#11b125" d="M 396.5,337.5 C 396.425,340.206 396.092,342.873 395.5,345.5C 434.167,345.5 472.833,345.5 511.5,345.5C 511.5,362.167 511.5,378.833 511.5,395.5C 462.829,395.833 414.162,395.5 365.5,394.5C 368.663,391.683 370.996,388.35 372.5,384.5C 382.892,370.048 390.892,354.382 396.5,337.5 Z"/></g>
<g><path style="opacity:1" fill="#16af27" d="M 138.5,334.5 C 140.147,337.729 141.814,341.063 143.5,344.5C 150.5,345.833 157.5,345.833 164.5,344.5C 163.054,342.382 162.387,340.049 162.5,337.5C 189.366,386.753 230.366,405.253 285.5,393C 314.774,383.553 336.108,365.053 349.5,337.5C 349.613,340.049 348.946,342.382 347.5,344.5C 354.5,345.833 361.5,345.833 368.5,344.5C 370.186,341.063 371.853,337.729 373.5,334.5C 355.787,383.229 321.12,411.396 269.5,419C 215.75,422.212 174.917,401.045 147,355.5C 143.081,348.904 140.248,341.904 138.5,334.5 Z"/></g>
<g><path style="opacity:0.997" fill="#0dab21" d="M 372.5,384.5 C 370.996,388.35 368.663,391.683 365.5,394.5C 414.162,395.5 462.829,395.833 511.5,395.5C 511.5,403.833 511.5,412.167 511.5,420.5C 509.656,428.867 507.322,437.2 504.5,445.5C 338.5,445.5 172.5,445.5 6.5,445.5C 3.67782,437.2 1.34449,428.867 -0.5,420.5C -0.5,412.167 -0.5,403.833 -0.5,395.5C 48.5,395.5 97.5,395.5 146.5,395.5C 146.5,394.5 146.5,393.5 146.5,392.5C 167.433,415.314 193.099,430.48 223.5,438C 283.659,448.564 333.326,430.731 372.5,384.5 Z"/></g>
<g><path style="opacity:0.996" fill="#07a51d" d="M 6.5,445.5 C 172.5,445.5 338.5,445.5 504.5,445.5C 487.908,482.099 459.908,504.099 420.5,511.5C 310.5,511.5 200.5,511.5 90.5,511.5C 51.0917,504.099 23.0917,482.099 6.5,445.5 Z"/></g>
</svg>
